<svg width="294" height="74" viewBox="0 0 294 74" fill="none" xmlns="http://www.w3.org/2000/svg">
<circle cx="41" cy="37" r="32" stroke="white" stroke-width="1.6"/>
<circle cx="40.9304" cy="26.2174" r="21.2174" stroke="white" stroke-width="0.8"/>
<circle cx="40.9304" cy="47.7826" r="21.2174" stroke="white" stroke-width="0.8"/>
<line x1="22.7739" y1="36.6" x2="59.087" y2="36.6" stroke="white" stroke-width="0.8"/>
<line x1="22.4267" y1="36.8014" x2="40.6528" y2="4.94052" stroke="white" stroke-width="0.8"/>
<line x1="58.8785" y1="37.198" x2="40.7123" y2="5.30319" stroke="white" stroke-width="0.8"/>
<line x1="59.4094" y1="37.0577" x2="41.3482" y2="69.012" stroke="white" stroke-width="0.8"/>
<line x1="22.9817" y1="36.8009" x2="41.287" y2="68.6957" stroke="white" stroke-width="0.8"/>
<ellipse cx="40.9652" cy="37.0348" rx="10.3652" ry="10.4348" stroke="white" stroke-width="0.8"/>
<ellipse cx="40.9652" cy="26.6348" rx="10.3652" ry="10.4348" stroke="white" stroke-width="0.8"/>
<ellipse cx="40.9652" cy="47.4348" rx="10.3652" ry="10.4348" stroke="white" stroke-width="0.8"/>
<path d="M87.6905 38.36C86.2705 38.36 84.9805 38.09 83.8205 37.55C82.6605 37.01 81.6805 36.29 80.8805 35.39C80.0805 34.47 79.5105 33.46 79.1705 32.36L81.3305 31.55C81.8505 33.07 82.6605 34.23 83.7605 35.03C84.8605 35.81 86.1705 36.2 87.6905 36.2C88.6505 36.2 89.4905 36.05 90.2105 35.75C90.9505 35.43 91.5205 34.99 91.9205 34.43C92.3205 33.87 92.5205 33.22 92.5205 32.48C92.5205 31.38 92.2205 30.53 91.6205 29.93C91.0205 29.33 90.1605 28.87 89.0405 28.55L85.0205 27.35C83.4405 26.89 82.2205 26.12 81.3605 25.04C80.5205 23.96 80.1005 22.73 80.1005 21.35C80.1005 20.17 80.3905 19.13 80.9705 18.23C81.5505 17.31 82.3405 16.59 83.3405 16.07C84.3605 15.55 85.5105 15.29 86.7905 15.29C88.1305 15.29 89.3305 15.54 90.3905 16.04C91.4705 16.52 92.3805 17.16 93.1205 17.96C93.8605 18.76 94.3905 19.65 94.7105 20.63L92.6105 21.47C92.1305 20.15 91.3805 19.15 90.3605 18.47C89.3605 17.79 88.1805 17.45 86.8205 17.45C85.9605 17.45 85.2005 17.6 84.5405 17.9C83.9005 18.2 83.4005 18.63 83.0405 19.19C82.6805 19.75 82.5005 20.41 82.5005 21.17C82.5005 22.09 82.7905 22.92 83.3705 23.66C83.9505 24.38 84.8405 24.92 86.0405 25.28L89.5805 26.33C91.3405 26.85 92.6705 27.6 93.5705 28.58C94.4705 29.56 94.9205 30.79 94.9205 32.27C94.9205 33.47 94.6105 34.53 93.9905 35.45C93.3905 36.35 92.5405 37.06 91.4405 37.58C90.3605 38.1 89.1105 38.36 87.6905 38.36ZM108.585 38.36C107.025 38.36 105.565 38.08 104.205 37.52C102.865 36.94 101.685 36.14 100.665 35.12C99.645 34.08 98.845 32.86 98.265 31.46C97.685 30.04 97.395 28.49 97.395 26.81C97.395 25.13 97.685 23.59 98.265 22.19C98.845 20.77 99.645 19.55 100.665 18.53C101.685 17.49 102.865 16.69 104.205 16.13C105.565 15.57 107.025 15.29 108.585 15.29C110.145 15.29 111.595 15.58 112.935 16.16C114.295 16.72 115.485 17.52 116.505 18.56C117.525 19.58 118.325 20.79 118.905 22.19C119.485 23.59 119.775 25.13 119.775 26.81C119.775 28.49 119.485 30.04 118.905 31.46C118.325 32.86 117.525 34.08 116.505 35.12C115.485 36.14 114.295 36.94 112.935 37.52C111.595 38.08 110.145 38.36 108.585 38.36ZM108.585 36.11C109.885 36.11 111.065 35.87 112.125 35.39C113.205 34.91 114.135 34.24 114.915 33.38C115.695 32.52 116.295 31.53 116.715 30.41C117.155 29.29 117.375 28.09 117.375 26.81C117.375 25.55 117.155 24.36 116.715 23.24C116.295 22.12 115.695 21.13 114.915 20.27C114.135 19.41 113.205 18.74 112.125 18.26C111.065 17.78 109.885 17.54 108.585 17.54C107.285 17.54 106.095 17.78 105.015 18.26C103.955 18.74 103.035 19.41 102.255 20.27C101.475 21.13 100.865 22.12 100.425 23.24C100.005 24.36 99.795 25.55 99.795 26.81C99.795 28.09 100.005 29.29 100.425 30.41C100.865 31.53 101.475 32.52 102.255 33.38C103.035 34.24 103.965 34.91 105.045 35.39C106.125 35.87 107.305 36.11 108.585 36.11ZM130.753 38.36C129.173 38.36 127.783 38.03 126.583 37.37C125.383 36.71 124.453 35.81 123.793 34.67C123.133 33.51 122.803 32.19 122.803 30.71V15.65H125.203V30.71C125.203 31.79 125.433 32.74 125.893 33.56C126.373 34.36 127.023 34.99 127.843 35.45C128.683 35.89 129.653 36.11 130.753 36.11C131.853 36.11 132.813 35.89 133.633 35.45C134.473 34.99 135.123 34.36 135.583 33.56C136.063 32.74 136.303 31.79 136.303 30.71V15.65H138.703V30.71C138.703 32.19 138.373 33.51 137.713 34.67C137.053 35.81 136.123 36.71 134.923 37.37C133.743 38.03 132.353 38.36 130.753 38.36ZM142.399 38V15.65H144.799V35.75H154.699V38H142.399ZM168.052 38.36C166.632 38.36 165.332 38.1 164.152 37.58C162.972 37.04 161.972 36.31 161.152 35.39C160.332 34.47 159.742 33.44 159.382 32.3L161.932 31.25C162.472 32.69 163.272 33.8 164.332 34.58C165.412 35.34 166.672 35.72 168.112 35.72C168.992 35.72 169.762 35.58 170.422 35.3C171.082 35.02 171.592 34.63 171.952 34.13C172.332 33.61 172.522 33.01 172.522 32.33C172.522 31.39 172.252 30.65 171.712 30.11C171.192 29.55 170.422 29.13 169.402 28.85L165.292 27.59C163.672 27.09 162.432 26.3 161.572 25.22C160.712 24.14 160.282 22.9 160.282 21.5C160.282 20.28 160.572 19.21 161.152 18.29C161.752 17.35 162.572 16.62 163.612 16.1C164.672 15.56 165.872 15.29 167.212 15.29C168.552 15.29 169.762 15.53 170.842 16.01C171.942 16.49 172.872 17.14 173.632 17.96C174.392 18.76 174.952 19.68 175.312 20.72L172.792 21.77C172.312 20.51 171.592 19.56 170.632 18.92C169.672 18.26 168.542 17.93 167.242 17.93C166.442 17.93 165.732 18.07 165.112 18.35C164.512 18.61 164.042 19 163.702 19.52C163.382 20.02 163.222 20.62 163.222 21.32C163.222 22.14 163.482 22.87 164.002 23.51C164.522 24.15 165.312 24.64 166.372 24.98L170.122 26.09C171.882 26.63 173.212 27.4 174.112 28.4C175.012 29.4 175.462 30.64 175.462 32.12C175.462 33.34 175.142 34.42 174.502 35.36C173.882 36.3 173.012 37.04 171.892 37.58C170.792 38.1 169.512 38.36 168.052 38.36ZM188.556 38.36C186.976 38.36 185.516 38.08 184.176 37.52C182.856 36.94 181.696 36.13 180.696 35.09C179.716 34.05 178.956 32.83 178.416 31.43C177.876 30.03 177.606 28.5 177.606 26.84C177.606 25.16 177.876 23.62 178.416 22.22C178.956 20.82 179.716 19.6 180.696 18.56C181.676 17.52 182.836 16.72 184.176 16.16C185.516 15.58 186.976 15.29 188.556 15.29C190.096 15.29 191.476 15.56 192.696 16.1C193.936 16.64 194.976 17.34 195.816 18.2C196.676 19.06 197.286 19.98 197.646 20.96L194.946 22.19C194.426 20.95 193.616 19.95 192.516 19.19C191.416 18.41 190.096 18.02 188.556 18.02C186.996 18.02 185.606 18.39 184.386 19.13C183.186 19.87 182.246 20.9 181.566 22.22C180.886 23.54 180.546 25.08 180.546 26.84C180.546 28.58 180.886 30.11 181.566 31.43C182.246 32.75 183.186 33.78 184.386 34.52C185.606 35.26 186.996 35.63 188.556 35.63C190.096 35.63 191.416 35.25 192.516 34.49C193.616 33.71 194.426 32.7 194.946 31.46L197.646 32.69C197.286 33.67 196.676 34.59 195.816 35.45C194.976 36.31 193.936 37.01 192.696 37.55C191.476 38.09 190.096 38.36 188.556 38.36ZM200.145 38V15.65H203.085V38H200.145ZM206.555 38V15.65H221.105V18.35H209.495V25.43H220.505V28.13H209.495V35.3H221.105V38H206.555ZM223.249 38V15.65H225.709L238.549 33.71L237.439 33.83V15.65H240.409V38H237.949L225.169 19.82L226.189 19.7V38H223.249ZM254.187 38.36C252.607 38.36 251.147 38.08 249.807 37.52C248.487 36.94 247.327 36.13 246.327 35.09C245.347 34.05 244.587 32.83 244.047 31.43C243.507 30.03 243.237 28.5 243.237 26.84C243.237 25.16 243.507 23.62 244.047 22.22C244.587 20.82 245.347 19.6 246.327 18.56C247.307 17.52 248.467 16.72 249.807 16.16C251.147 15.58 252.607 15.29 254.187 15.29C255.727 15.29 257.107 15.56 258.327 16.1C259.567 16.64 260.607 17.34 261.447 18.2C262.307 19.06 262.917 19.98 263.277 20.96L260.577 22.19C260.057 20.95 259.247 19.95 258.147 19.19C257.047 18.41 255.727 18.02 254.187 18.02C252.627 18.02 251.237 18.39 250.017 19.13C248.817 19.87 247.877 20.9 247.197 22.22C246.517 23.54 246.177 25.08 246.177 26.84C246.177 28.58 246.517 30.11 247.197 31.43C247.877 32.75 248.817 33.78 250.017 34.52C251.237 35.26 252.627 35.63 254.187 35.63C255.727 35.63 257.047 35.25 258.147 34.49C259.247 33.71 260.057 32.7 260.577 31.46L263.277 32.69C262.917 33.67 262.307 34.59 261.447 35.45C260.607 36.31 259.567 37.01 258.327 37.55C257.107 38.09 255.727 38.36 254.187 38.36ZM265.776 38V15.65H280.326V18.35H268.716V25.43H279.726V28.13H268.716V35.3H280.326V38H265.776Z" fill="white"/>
<path d="M82.1152 56V48.14H79.6912V47.06H85.6912V48.14H83.3032V56H82.1152ZM87.4128 56V47.06H90.5688C91.1608 47.06 91.6808 47.172 92.1288 47.396C92.5768 47.62 92.9248 47.94 93.1728 48.356C93.4288 48.772 93.5568 49.26 93.5568 49.82C93.5568 50.452 93.3968 50.988 93.0768 51.428C92.7568 51.868 92.3248 52.184 91.7808 52.376L93.8568 56H92.4888L90.3048 52.124L91.0848 52.58H88.5888V56H87.4128ZM88.5888 51.5H90.6048C90.9568 51.5 91.2648 51.432 91.5288 51.296C91.7928 51.16 91.9968 50.964 92.1408 50.708C92.2928 50.452 92.3688 50.156 92.3688 49.82C92.3688 49.476 92.2928 49.18 92.1408 48.932C91.9968 48.676 91.7928 48.48 91.5288 48.344C91.2648 48.208 90.9568 48.14 90.6048 48.14H88.5888V51.5ZM94.918 56L98.122 47.06H99.514L102.718 56H101.458L100.726 53.9H96.91L96.178 56H94.918ZM97.282 52.82H100.354L98.65 47.912H98.986L97.282 52.82ZM104.433 56V47.06H105.417L110.553 54.284L110.109 54.332V47.06H111.297V56H110.313L105.201 48.728L105.609 48.68V56H104.433ZM116.952 56.144C116.384 56.144 115.864 56.04 115.392 55.832C114.92 55.616 114.52 55.324 114.192 54.956C113.864 54.588 113.628 54.176 113.484 53.72L114.504 53.3C114.72 53.876 115.04 54.32 115.464 54.632C115.896 54.936 116.4 55.088 116.976 55.088C117.328 55.088 117.636 55.032 117.9 54.92C118.164 54.808 118.368 54.652 118.512 54.452C118.664 54.244 118.74 54.004 118.74 53.732C118.74 53.356 118.632 53.06 118.416 52.844C118.208 52.62 117.9 52.452 117.492 52.34L115.848 51.836C115.2 51.636 114.704 51.32 114.36 50.888C114.016 50.456 113.844 49.96 113.844 49.4C113.844 48.912 113.96 48.484 114.192 48.116C114.432 47.74 114.76 47.448 115.176 47.24C115.6 47.024 116.08 46.916 116.616 46.916C117.152 46.916 117.636 47.012 118.068 47.204C118.508 47.396 118.88 47.656 119.184 47.984C119.488 48.304 119.712 48.672 119.856 49.088L118.848 49.508C118.656 49.004 118.368 48.624 117.984 48.368C117.6 48.104 117.148 47.972 116.628 47.972C116.308 47.972 116.024 48.028 115.776 48.14C115.536 48.244 115.348 48.4 115.212 48.608C115.084 48.808 115.02 49.048 115.02 49.328C115.02 49.656 115.124 49.948 115.332 50.204C115.54 50.46 115.856 50.656 116.28 50.792L117.78 51.236C118.484 51.452 119.016 51.76 119.376 52.16C119.736 52.56 119.916 53.056 119.916 53.648C119.916 54.136 119.788 54.568 119.532 54.944C119.284 55.32 118.936 55.616 118.488 55.832C118.048 56.04 117.536 56.144 116.952 56.144ZM122.226 56V47.06H127.89V48.14H123.402V51.032H127.47V52.112H123.402V56H122.226ZM133.965 56.144C133.333 56.144 132.741 56.032 132.189 55.808C131.637 55.576 131.153 55.252 130.737 54.836C130.329 54.42 130.009 53.932 129.777 53.372C129.545 52.804 129.429 52.188 129.429 51.524C129.429 50.852 129.545 50.236 129.777 49.676C130.009 49.116 130.329 48.628 130.737 48.212C131.153 47.796 131.633 47.476 132.177 47.252C132.729 47.028 133.325 46.916 133.965 46.916C134.605 46.916 135.197 47.032 135.741 47.264C136.293 47.488 136.773 47.808 137.181 48.224C137.597 48.632 137.921 49.116 138.153 49.676C138.393 50.236 138.513 50.852 138.513 51.524C138.513 52.188 138.393 52.804 138.153 53.372C137.921 53.932 137.597 54.42 137.181 54.836C136.773 55.252 136.293 55.576 135.741 55.808C135.197 56.032 134.605 56.144 133.965 56.144ZM133.965 55.052C134.461 55.052 134.913 54.964 135.321 54.788C135.729 54.604 136.081 54.352 136.377 54.032C136.681 53.704 136.913 53.328 137.073 52.904C137.241 52.472 137.325 52.012 137.325 51.524C137.325 51.036 137.241 50.58 137.073 50.156C136.913 49.732 136.681 49.36 136.377 49.04C136.081 48.712 135.729 48.46 135.321 48.284C134.913 48.1 134.461 48.008 133.965 48.008C133.477 48.008 133.029 48.1 132.621 48.284C132.213 48.46 131.857 48.712 131.553 49.04C131.257 49.36 131.025 49.732 130.857 50.156C130.689 50.58 130.605 51.036 130.605 51.524C130.605 52.012 130.689 52.472 130.857 52.904C131.025 53.328 131.257 53.704 131.553 54.032C131.857 54.352 132.213 54.604 132.621 54.788C133.029 54.964 133.477 55.052 133.965 55.052ZM140.816 56V47.06H143.972C144.564 47.06 145.084 47.172 145.532 47.396C145.98 47.62 146.328 47.94 146.576 48.356C146.832 48.772 146.96 49.26 146.96 49.82C146.96 50.452 146.8 50.988 146.48 51.428C146.16 51.868 145.728 52.184 145.184 52.376L147.26 56H145.892L143.708 52.124L144.488 52.58H141.992V56H140.816ZM141.992 51.5H144.008C144.36 51.5 144.668 51.432 144.932 51.296C145.196 51.16 145.4 50.964 145.544 50.708C145.696 50.452 145.772 50.156 145.772 49.82C145.772 49.476 145.696 49.18 145.544 48.932C145.4 48.676 145.196 48.48 144.932 48.344C144.668 48.208 144.36 48.14 144.008 48.14H141.992V51.5ZM149.185 56V47.06H150.265L153.613 51.824H153.061L156.385 47.06H157.465V56H156.277V48.548L156.697 48.68L153.373 53.36H153.277L149.989 48.68L150.361 48.548V56H149.185ZM159.175 56L162.379 47.06H163.771L166.975 56H165.715L164.983 53.9H161.167L160.435 56H159.175ZM161.539 52.82H164.611L162.907 47.912H163.243L161.539 52.82ZM169.651 56V48.14H167.227V47.06H173.227V48.14H170.839V56H169.651ZM174.949 56V47.06H176.125V56H174.949ZM182.973 56.144C182.341 56.144 181.749 56.032 181.197 55.808C180.645 55.576 180.161 55.252 179.745 54.836C179.337 54.42 179.017 53.932 178.785 53.372C178.553 52.804 178.437 52.188 178.437 51.524C178.437 50.852 178.553 50.236 178.785 49.676C179.017 49.116 179.337 48.628 179.745 48.212C180.161 47.796 180.641 47.476 181.185 47.252C181.737 47.028 182.333 46.916 182.973 46.916C183.613 46.916 184.205 47.032 184.749 47.264C185.301 47.488 185.781 47.808 186.189 48.224C186.605 48.632 186.929 49.116 187.161 49.676C187.401 50.236 187.521 50.852 187.521 51.524C187.521 52.188 187.401 52.804 187.161 53.372C186.929 53.932 186.605 54.42 186.189 54.836C185.781 55.252 185.301 55.576 184.749 55.808C184.205 56.032 183.613 56.144 182.973 56.144ZM182.973 55.052C183.469 55.052 183.921 54.964 184.329 54.788C184.737 54.604 185.089 54.352 185.385 54.032C185.689 53.704 185.921 53.328 186.081 52.904C186.249 52.472 186.333 52.012 186.333 51.524C186.333 51.036 186.249 50.58 186.081 50.156C185.921 49.732 185.689 49.36 185.385 49.04C185.089 48.712 184.737 48.46 184.329 48.284C183.921 48.1 183.469 48.008 182.973 48.008C182.485 48.008 182.037 48.1 181.629 48.284C181.221 48.46 180.865 48.712 180.561 49.04C180.265 49.36 180.033 49.732 179.865 50.156C179.697 50.58 179.613 51.036 179.613 51.524C179.613 52.012 179.697 52.472 179.865 52.904C180.033 53.328 180.265 53.704 180.561 54.032C180.865 54.352 181.221 54.604 181.629 54.788C182.037 54.964 182.485 55.052 182.973 55.052ZM189.824 56V47.06H190.808L195.944 54.284L195.5 54.332V47.06H196.688V56H195.704L190.592 48.728L191 48.68V56H189.824ZM198.408 56L201.612 47.06H203.004L206.208 56H204.948L204.216 53.9H200.4L199.668 56H198.408ZM200.772 52.82H203.844L202.14 47.912H202.476L200.772 52.82ZM207.922 56V47.06H209.098V54.92H213.022V56H207.922ZM219.238 56L216.73 47.06H217.966L220.066 54.932H219.778L221.962 47.06H223.198L225.37 54.932H225.07L227.182 47.06H228.418L225.91 56H224.602L222.418 48.164H222.73L220.546 56H219.238ZM230.135 56V47.06H235.955V48.14H231.311V50.972H235.715V52.052H231.311V54.92H235.955V56H230.135ZM238.001 56V47.06H239.177V54.92H243.101V56H238.001ZM245.011 56V47.06H246.187V54.92H250.111V56H245.011ZM252.02 56V47.06H253.004L258.14 54.284L257.696 54.332V47.06H258.884V56H257.9L252.788 48.728L253.196 48.68V56H252.02ZM261.468 56V47.06H267.288V48.14H262.644V50.972H267.048V52.052H262.644V54.92H267.288V56H261.468ZM272.405 56.144C271.837 56.144 271.317 56.04 270.845 55.832C270.373 55.616 269.973 55.324 269.645 54.956C269.317 54.588 269.081 54.176 268.937 53.72L269.957 53.3C270.173 53.876 270.493 54.32 270.917 54.632C271.349 54.936 271.853 55.088 272.429 55.088C272.781 55.088 273.089 55.032 273.353 54.92C273.617 54.808 273.821 54.652 273.965 54.452C274.117 54.244 274.193 54.004 274.193 53.732C274.193 53.356 274.085 53.06 273.869 52.844C273.661 52.62 273.353 52.452 272.945 52.34L271.301 51.836C270.653 51.636 270.157 51.32 269.813 50.888C269.469 50.456 269.297 49.96 269.297 49.4C269.297 48.912 269.413 48.484 269.645 48.116C269.885 47.74 270.213 47.448 270.629 47.24C271.053 47.024 271.533 46.916 272.069 46.916C272.605 46.916 273.089 47.012 273.521 47.204C273.961 47.396 274.333 47.656 274.637 47.984C274.941 48.304 275.165 48.672 275.309 49.088L274.301 49.508C274.109 49.004 273.821 48.624 273.437 48.368C273.053 48.104 272.601 47.972 272.081 47.972C271.761 47.972 271.477 48.028 271.229 48.14C270.989 48.244 270.801 48.4 270.665 48.608C270.537 48.808 270.473 49.048 270.473 49.328C270.473 49.656 270.577 49.948 270.785 50.204C270.993 50.46 271.309 50.656 271.733 50.792L273.233 51.236C273.937 51.452 274.469 51.76 274.829 52.16C275.189 52.56 275.369 53.056 275.369 53.648C275.369 54.136 275.241 54.568 274.985 54.944C274.737 55.32 274.389 55.616 273.941 55.832C273.501 56.04 272.989 56.144 272.405 56.144ZM280.751 56.144C280.183 56.144 279.663 56.04 279.191 55.832C278.719 55.616 278.319 55.324 277.991 54.956C277.663 54.588 277.427 54.176 277.283 53.72L278.303 53.3C278.519 53.876 278.839 54.32 279.263 54.632C279.695 54.936 280.199 55.088 280.775 55.088C281.127 55.088 281.435 55.032 281.699 54.92C281.963 54.808 282.167 54.652 282.311 54.452C282.463 54.244 282.539 54.004 282.539 53.732C282.539 53.356 282.431 53.06 282.215 52.844C282.007 52.62 281.699 52.452 281.291 52.34L279.647 51.836C278.999 51.636 278.503 51.32 278.159 50.888C277.815 50.456 277.643 49.96 277.643 49.4C277.643 48.912 277.759 48.484 277.991 48.116C278.231 47.74 278.559 47.448 278.975 47.24C279.399 47.024 279.879 46.916 280.415 46.916C280.951 46.916 281.435 47.012 281.867 47.204C282.307 47.396 282.679 47.656 282.983 47.984C283.287 48.304 283.511 48.672 283.655 49.088L282.647 49.508C282.455 49.004 282.167 48.624 281.783 48.368C281.399 48.104 280.947 47.972 280.427 47.972C280.107 47.972 279.823 48.028 279.575 48.14C279.335 48.244 279.147 48.4 279.011 48.608C278.883 48.808 278.819 49.048 278.819 49.328C278.819 49.656 278.923 49.948 279.131 50.204C279.339 50.46 279.655 50.656 280.079 50.792L281.579 51.236C282.283 51.452 282.815 51.76 283.175 52.16C283.535 52.56 283.715 53.056 283.715 53.648C283.715 54.136 283.587 54.568 283.331 54.944C283.083 55.32 282.735 55.616 282.287 55.832C281.847 56.04 281.335 56.144 280.751 56.144Z" fill="#CCCCCC"/>
</svg>
