<svg width="50" height="50" viewBox="0 0 50 50" fill="none" xmlns="http://www.w3.org/2000/svg">
<path d="M37 37.1266C37 35.5232 37.4459 34.2785 38.3376 33.3924C39.2293 32.4641 40.4395 32 41.9682 32C43.4968 32 44.707 32.4641 45.5987 33.3924C46.5329 34.3207 47 35.5443 47 37.0633C47 38.5823 46.5541 39.7848 45.6624 40.6709C44.7707 41.557 43.518 42 41.9045 42C40.3758 42 39.1656 41.5781 38.2739 40.7342C37.4246 39.8903 37 38.6878 37 37.1266Z" fill="#30A185"/>
<path d="M15.24 37.4H21.24C22.968 37.4 24.44 37.144 25.656 36.632C26.872 36.088 27.896 35.288 28.728 34.232C29.592 33.144 30.248 31.752 30.696 30.056C31.144 28.36 31.368 26.344 31.368 24.008C31.368 19.464 30.488 15.992 28.728 13.592C27.864 12.408 26.776 11.528 25.464 10.952C24.184 10.344 22.616 10.04 20.76 10.04H15.24V37.4ZM4.96802 6.44H22.536C27.304 6.44 31.016 7.784 33.672 10.472C35.176 12.008 36.328 13.896 37.128 16.136C37.928 18.376 38.328 20.776 38.328 23.336C38.328 26.024 37.896 28.552 37.032 30.92C36.2 33.256 35.032 35.224 33.528 36.824C30.872 39.608 27.064 41 22.104 41H4.96802V38.216L9.00002 37.208V10.232L4.96802 9.224V6.44Z" fill="#121212"/>
</svg>
