<svg width="76" height="76" viewBox="0 0 76 76" fill="none" xmlns="http://www.w3.org/2000/svg">
<path d="M56.24 56.4324C56.24 53.9953 56.9177 52.1033 58.2731 50.7565C59.6285 49.3455 61.468 48.64 63.7916 48.64C66.1152 48.64 67.9546 49.3455 69.3101 50.7565C70.73 52.1674 71.44 54.0274 71.44 56.3362C71.44 58.6451 70.7623 60.4729 69.4069 61.8198C68.0515 63.1666 66.1474 63.84 63.6948 63.84C61.3712 63.84 59.5317 63.1987 58.1763 61.916C56.8854 60.6333 56.24 58.8054 56.24 56.4324Z" fill="#30A185"/>
<path d="M23.1648 56.848H32.2848C34.9114 56.848 37.1488 56.4589 38.9972 55.6807C40.8455 54.8538 42.402 53.6378 43.6666 52.0327C44.9799 50.3789 45.977 48.2631 46.658 45.6851C47.3389 43.1072 47.6794 40.0429 47.6794 36.4922C47.6794 29.5853 46.3418 24.3079 43.6666 20.6599C42.3533 18.8602 40.6996 17.5226 38.7053 16.6471C36.7597 15.7229 34.3764 15.2608 31.5552 15.2608H23.1648V56.848ZM7.55139 9.78882H34.2547C41.5021 9.78882 47.1444 11.8317 51.1815 15.9175C53.4676 18.2522 55.2186 21.1219 56.4346 24.5267C57.6506 27.9315 58.2586 31.5795 58.2586 35.4707C58.2586 39.5565 57.602 43.3991 56.2887 46.9984C55.024 50.5491 53.2487 53.5405 50.9626 55.9725C46.9255 60.2042 41.1373 62.32 33.5981 62.32H7.55139V58.0883L13.68 56.5562V15.5527L7.55139 14.0205V9.78882Z" fill="white"/>
</svg>
